<mxfile host="app.diagrams.net" modified="2024-02-12T20:50:56.905Z" agent="Mozilla/5.0 (Windows NT 10.0; Win64; x64; rv:109.0) Gecko/20100101 Firefox/115.0" version="23.1.2" etag="iT85FrpxrRM7HdAhZSRy" type="github">
  <diagram name="Page-1" id="JCmv9uSRaTxHI-12EPVF">
    <mxGraphModel>
      <root>
        <mxCell id="0" />
        <mxCell id="1" parent="0" />
      </root>
    </mxGraphModel>
  </diagram>
</mxfile>
